# xmcd
#
# Track frame offsets:
#	150
#	16052
#	32454
#	49648
#	63201
#	77291
#	92641
#	109046
#	125202
#	140706
#	157119
#	173434
#	189991
#	201175
#	217679
#	247179
#
# Disc length: 3301 seconds
#
# Revision: 2
# Processed by: cddbd v1.5.2PL0 Copyright (c) Steve Scherf et al.
# Submitted via: audiograbber 1.83.01
#
DISCID=cb0ce310
DTITLE=Keith, Toby - ASK1531
DYEAR=1900
DGENRE=Karaoke
TTITLE0=Toby Keith - How Do You Like Me Now
TTITLE1=Toby Keith - Country Comes To Town
TTITLE2=Toby Keith - You Shouldn't Kiss Me Like That
TTITLE3=Toby Keith - I'm Just Talkin' About Tonight
TTITLE4=Toby Keith - I Wanna Talk About Me
TTITLE5=Toby Keith - My List
TTITLE6=Toby Keith - Courtesy Of The Red, White and Blue
TTITLE7=Toby Keith - Who's Your Daddy
TTITLE8=Toby Keith and Willie Nelson - Beer For My Horses
TTITLE9=Toby Keith - Stays In Mexico
TTITLE10=Toby Keith - Mockingbird
TTITLE11=Toby Keith - Go With Her
TTITLE12=Toby Keith - You Ain't Much Fun
TTITLE13=Toby Keith - Should've Been A Cowboy
TTITLE14=Toby Keith - I Love This Bar (bonus)
TTITLE15=Data Track - Data Track
EXTD=
EXTT0=
EXTT1=
EXTT2=
EXTT3=
EXTT4=
EXTT5=
EXTT6=
EXTT7=
EXTT8=
EXTT9=
EXTT10=
EXTT11=
EXTT12=
EXTT13=
EXTT14=
EXTT15=
PLAYORDER=
